<svg xmlns="http://www.w3.org/2000/svg" xmlns:xlink="http://www.w3.org/1999/xlink" width="100.445" height="112.066" viewBox="0 0 100.445 112.066"><defs><linearGradient id="a" x1="1" y1="0.45" x2="0" y2="0.446" gradientUnits="objectBoundingBox"><stop offset="0" stop-color="#048e98"/><stop offset="0.502" stop-color="#048e98"/><stop offset="0.502" stop-color="#117882"/><stop offset="1" stop-color="#117882"/></linearGradient><filter id="b" x="0" y="0" width="100.445" height="112.066" filterUnits="userSpaceOnUse"><feOffset dy="3" input="SourceAlpha"/><feGaussianBlur stdDeviation="5" result="c"/><feFlood flood-opacity="0.22"/><feComposite operator="in" in2="c"/><feComposite in="SourceGraphic"/></filter></defs><g transform="translate(15 12)"><path d="M65.864,16.62C59.255,13.715,36.451,5,36.451,5s-22.8,8.715-29.413,11.62C1.155,41.313,3.334,75.446,36.451,79.8,69.568,75.446,71.747,41.313,65.864,16.62Z" transform="translate(-1.225 -1.369)" fill="#3db39e"/><g transform="translate(-427.96 -1262.934)"><g transform="matrix(1, 0, 0, 1, 412.96, 1250.93)" filter="url(#b)"><g transform="translate(15 12)" fill="url(#a)"><path d="M 35.59946060180664 80.06640625 L 35.22225189208984 80.06640625 L 34.84504318237305 80.06640625 C 23.84879112243652 78.60308837890625 15.41620826721191 73.71451568603516 9.779952049255371 65.53506469726562 L 9.777426719665527 65.53140258789062 L 9.77488899230957 65.52775573730469 C 5.340630531311035 59.15353012084961 2.77204704284668 50.94380950927734 2.140426158905029 41.12643814086914 C 1.635531902313232 32.75114059448242 2.470842361450195 23.69208717346191 4.556143760681152 14.92838668823242 C 4.697143077850342 14.37354278564453 5.008384704589844 13.97685527801514 5.506897449493408 13.71703910827637 C 12.00036334991455 10.83706951141357 33.4248161315918 2.551157236099243 34.58552932739258 2.102871656417847 C 34.80425262451172 2.033687353134155 35.01293563842773 2.000003099441528 35.22225189208984 2.000003099441528 C 35.4461784362793 2.000003099441528 35.55659103393555 2.040115594863892 35.63507843017578 2.079353094100952 L 35.69668960571289 2.110165596008301 L 35.76027679443359 2.136653184890747 C 35.94921493530273 2.215390682220459 36.76742553710938 2.535303115844727 38.60010147094727 3.251428127288818 C 44.92616271972656 5.723352909088135 59.74062728881836 11.51214027404785 64.91252899169922 13.81077766418457 L 64.92471313476562 13.81619071960449 L 64.93697357177734 13.82144069671631 C 65.34371185302734 13.99575710296631 65.67259216308594 14.41518783569336 65.81990814208984 14.94593143463135 C 67.93944549560547 23.8605785369873 68.79867553710938 32.91031265258789 68.30449676513672 41.11946105957031 C 67.60134887695312 50.94322204589844 65.02997589111328 59.1590576171875 60.6624755859375 65.53807830810547 C 55.02622222900391 73.71572113037109 46.59436416625977 78.603271484375 35.59946060180664 80.06640625 Z" stroke="none"/><path d="M 35.12660217285156 4.037925720214844 C 32.78497314453125 4.943359375 12.9036865234375 12.64379119873047 6.482574462890625 15.47242736816406 C 4.456428527832031 24.02175903320312 3.645217895507812 32.84869384765625 4.136703491210938 41.00435638427734 C 4.745330810546875 50.44958114624023 7.194671630859375 58.31645584106445 11.41669464111328 64.3856201171875 L 11.42177963256836 64.39291381835938 L 11.42682266235352 64.40024566650391 C 14.06056594848633 68.22238922119141 17.37593841552734 71.31028747558594 21.28083801269531 73.57816314697266 C 25.19873809814453 75.85358428955078 29.80642700195312 77.36312103271484 34.97897338867188 78.06640625 L 35.22225189208984 78.06640625 L 35.46554565429688 78.06640625 C 40.63807678222656 77.36312103271484 45.24576568603516 75.85359954833984 49.16366577148438 73.57816314697266 C 53.06642150878906 71.31153869628906 56.38047027587891 68.22552490234375 59.01351547241211 64.40628814697266 C 63.17575073242188 58.3265380859375 65.63004302978516 50.44848251342773 66.3087158203125 40.98915863037109 C 66.78728485107422 33.01991271972656 65.95748138427734 24.22948837280273 63.90848922729492 15.55352020263672 C 58.61091232299805 13.21798706054688 44.10865783691406 7.551177978515625 37.87248229980469 5.114356994628906 C 36.20198822021484 4.461616516113281 35.44620513916016 4.166099548339844 35.12660217285156 4.037925720214844 M 35.22225189208984 0 C 35.65800857543945 0 36.09375 0.0726165771484375 36.52951049804688 0.2904891967773438 C 37.40100860595703 0.6536178588867188 59.18853759765625 9.078132629394531 65.72479248046875 11.98314666748047 C 66.74156951904297 12.41889953613281 67.46781158447266 13.36302947998047 67.75830841064453 14.45240020751953 C 69.93706512451172 23.60317611694336 70.80856323242188 32.82656097412109 70.30019378662109 41.2510871887207 C 69.57393646240234 51.41860198974609 66.88681030273438 59.98837280273438 62.31142425537109 66.66987609863281 C 56.35616683959961 75.31227111816406 47.42327880859375 80.54129028320312 35.73063659667969 82.06640625 C 35.51275253295898 82.06640625 35.44012451171875 82.06640625 35.22225189208984 82.06640625 C 35.00437927246094 82.06640625 34.85913848876953 82.06640625 34.7138786315918 82.06640625 C 23.02123641967773 80.54129028320312 14.08833694458008 75.31227111816406 8.133079528808594 66.66987609863281 C 3.485069274902344 59.98837280273438 0.7979354858398438 51.41860198974609 0.1443099975585938 41.2510871887207 C -0.3640594482421875 32.82656097412109 0.4348068237304688 23.60317611694336 2.613563537597656 14.45240020751953 C 2.904067993164062 13.2904052734375 3.63031005859375 12.41889953613281 4.647064208984375 11.91051483154297 C 11.18332290649414 9.005516052246094 32.97087860107422 0.5810012817382812 33.91499328613281 0.2178726196289062 C 34.35075378417969 0.0726165771484375 34.7865104675293 0 35.22225189208984 0 Z" stroke="none" fill="#fff"/></g></g><path d="M59.117,40.058A3.333,3.333,0,0,0,54.4,40.2L41.324,53.566l-5.665,5.81-7.408-7.263a3.338,3.338,0,0,0-4.721,4.721l9.8,9.659a3.5,3.5,0,0,0,2.251.8,3.923,3.923,0,0,0,2.4-.944l3.268-3.341,17.938-18.3A3.128,3.128,0,0,0,59.117,40.058Z" transform="translate(421.79 1252.217)" fill="#fff"/></g></g></svg>